<?xml version="1.0" encoding="utf-8"?>

<svg version="1.1" id="Icons" xmlns="http://www.w3.org/2000/svg" xmlns:xlink="http://www.w3.org/1999/xlink" x="0px" y="0px"
width="70px" height="70px"	fill="#2A7AE4" viewBox="0 0 32 32" style="enable-background:new 0 0 32 32;" xml:space="preserve">
<style type="text/css">
	.st0{fill:none;stroke:#2A7AE4;stroke-width:2;stroke-linecap:round;stroke-linejoin:round;stroke-miterlimit:10;}
</style>
<path class="st0" d="M18,19c-1.1,0-2.1,0.4-3,1H10c-0.8-0.6-1.9-1-3-1c-2.8,0-5,2.2-5,5s2.2,5,5,5c1.1,0,2.1-0.4,3-1H15
	c0.8,0.6,1.9,1,3,1c2.8,0,5-2.2,5-5S20.8,19,18,19z"/>
<line class="st0" x1="7" y1="22" x2="7" y2="26"/>
<line class="st0" x1="5" y1="24" x2="9" y2="24"/>
<line class="st0" x1="19" y1="23" x2="19" y2="23"/>
<line class="st0" x1="17" y1="25" x2="17" y2="25"/>
<path class="st0" d="M23,27.4l2,1.6h3c1.1,0,2-0.9,2-2V5c0-1.1-0.9-2-2-2h-3l-4.2,3.4C20.3,6.8,20,7.4,20,8v10.9"/>
<line class="st0" x1="27" y1="6" x2="27" y2="15"/>
<line class="st0" x1="27" y1="25" x2="27" y2="25"/>
</svg>
