<?xml version="1.0" encoding="iso-8859-1"?>
<!-- Generator: Adobe Illustrator 19.0.0, SVG Export Plug-In . SVG Version: 6.00 Build 0)  -->
<svg version="1.1" id="Layer_1" xmlns="http://www.w3.org/2000/svg" xmlns:xlink="http://www.w3.org/1999/xlink" x="0px" y="0px"
	 viewBox="0 0 512.001 512.001" style="enable-background:new 0 0 512.001 512.001;" xml:space="preserve">
<g>
	<g>
		<path d="M308.999,31.165c-5.777,0-10.461,4.684-10.461,10.461v0.137c0,5.778,4.685,10.461,10.461,10.461
			s10.461-4.684,10.461-10.461v-0.137C319.461,35.848,314.776,31.165,308.999,31.165z"/>
	</g>
</g>
<g>
	<g>
		<path d="M308.999,65.146c-5.777,0-10.461,4.684-10.461,10.461v67.707c0,5.778,4.685,10.461,10.461,10.461
			s10.461-4.684,10.461-10.461V75.608C319.461,69.83,314.776,65.146,308.999,65.146z"/>
	</g>
</g>
<g>
	<g>
		<path d="M350.845,31.165c-5.777,0-10.461,4.684-10.461,10.461v0.137c0,5.778,4.685,10.461,10.461,10.461
			s10.461-4.684,10.461-10.461v-0.137C361.306,35.848,356.622,31.165,350.845,31.165z"/>
	</g>
</g>
<g>
	<g>
		<path d="M350.845,65.146c-5.777,0-10.461,4.684-10.461,10.461v67.707c0,5.778,4.685,10.461,10.461,10.461
			s10.461-4.684,10.461-10.461V75.608C361.306,69.83,356.622,65.146,350.845,65.146z"/>
	</g>
</g>
<g>
	<g>
		<path d="M392.69,31.165c-5.777,0-10.461,4.684-10.461,10.461v0.137c0,5.778,4.685,10.461,10.461,10.461
			c5.777,0,10.461-4.684,10.461-10.461v-0.137C403.152,35.848,398.467,31.165,392.69,31.165z"/>
	</g>
</g>
<g>
	<g>
		<path d="M392.69,65.146c-5.777,0-10.461,4.684-10.461,10.461v67.707c0,5.778,4.685,10.461,10.461,10.461
			c5.777,0,10.461-4.684,10.461-10.461V75.608C403.152,69.83,398.467,65.146,392.69,65.146z"/>
	</g>
</g>
<g>
	<g>
		<path d="M428.259,0.002H273.431c-5.777,0-10.461,4.684-10.461,10.461v164.014c0,3.447,1.674,6.494,4.245,8.401
			c-0.004,0.002-0.007,0.004-0.01,0.006l73.18,54.203v83.647h-14.646c-5.777,0-10.461,4.684-10.461,10.461v145.478
			c0,19.48,15.956,35.328,35.569,35.328s35.569-15.848,35.569-35.328V331.194c0-5.778-4.685-10.461-10.461-10.461h-14.646v-83.647
			l73.18-54.203c-0.004-0.002-0.007-0.004-0.01-0.006c2.571-1.906,4.245-4.953,4.245-8.401V10.464
			C438.721,4.686,434.036,0.002,428.259,0.002z M365.491,341.656v135.016c0,7.943-6.57,14.405-14.646,14.405
			s-14.646-6.462-14.646-14.405v-99.711h11.782c5.777,0,10.461-4.684,10.461-10.461s-4.685-10.461-10.461-10.461h-11.782v-14.382
			H365.491z M350.845,218.798l-45.714-33.859h91.428L350.845,218.798z M417.798,164.016H283.892V20.925h133.906V164.016z"/>
	</g>
</g>
<g>
	<g>
		<path d="M236.25,0.125c-5.37-0.833-10.479,2.585-11.765,7.861l-33.787,138.622h-63.006L93.906,7.986
			C92.62,2.71,87.511-0.708,82.141,0.126c-5.368,0.832-9.207,5.632-8.836,11.051l11.226,164.225
			c0.804,11.763,10.67,20.977,22.461,20.977h41.741v124.353h-14.646c-5.777,0-10.461,4.684-10.461,10.461v145.478
			c0,19.48,15.956,35.328,35.569,35.328c19.613,0,35.569-15.848,35.569-35.328V331.194c0-5.778-4.685-10.461-10.461-10.461h-14.646
			V196.379h41.741c11.791,0,21.656-9.214,22.461-20.977l11.227-164.225C245.456,5.758,241.618,0.956,236.25,0.125z M173.84,341.656
			v135.016c0,7.943-6.57,14.405-14.646,14.405s-14.646-6.462-14.646-14.405v-99.711h11.782c5.777,0,10.461-4.684,10.461-10.461
			s-4.685-10.461-10.461-10.461h-11.782v-14.382H173.84z M212.984,173.975c-0.058,0.831-0.754,1.482-1.587,1.482H106.991
			c-0.833,0-1.529-0.651-1.587-1.482l-2.894-42.318l6.331,25.974c1.42,5.829,6.602,9.9,12.602,9.9h75.5
			c6,0,11.181-4.072,12.602-9.899l6.331-25.976L212.984,173.975z"/>
	</g>
</g>
<g>
</g>
<g>
</g>
<g>
</g>
<g>
</g>
<g>
</g>
<g>
</g>
<g>
</g>
<g>
</g>
<g>
</g>
<g>
</g>
<g>
</g>
<g>
</g>
<g>
</g>
<g>
</g>
<g>
</g>
</svg>
